<mxfile host="app.diagrams.net" agent="Mozilla/5.0 (X11; Linux x86_64) AppleWebKit/537.36 (KHTML, like Gecko) Chrome/135.0.0.0 Safari/537.36" version="27.0.4">
  <diagram name="Page-1" id="iADvmr461MefeSQXCXNi">
    <mxGraphModel dx="2276" dy="722" grid="1" gridSize="10" guides="1" tooltips="1" connect="1" arrows="1" fold="1" page="1" pageScale="1" pageWidth="850" pageHeight="1100" background="light-dark(#181818,#181818)" math="0" shadow="0">
      <root>
        <mxCell id="0" />
        <mxCell id="1" parent="0" />
        <mxCell id="NSskydTmlTYRemo2YeHl-166" value="" style="rounded=0;whiteSpace=wrap;html=1;strokeColor=#D0CEE2;fontColor=#1A1A1A;fillColor=default;" parent="1" vertex="1">
          <mxGeometry x="-80" y="600" width="960" height="360" as="geometry" />
        </mxCell>
        <mxCell id="NSskydTmlTYRemo2YeHl-107" value="" style="rounded=0;whiteSpace=wrap;html=1;strokeColor=#D0CEE2;fontColor=default;fillColor=default;" parent="1" vertex="1">
          <mxGeometry x="-80" y="160" width="960" height="360" as="geometry" />
        </mxCell>
        <mxCell id="NSskydTmlTYRemo2YeHl-1" value="droplet.public.account" style="shape=table;startSize=30;container=1;collapsible=1;childLayout=tableLayout;fixedRows=1;rowLines=0;align=center;resizeLast=1;rounded=1;fillColor=#5D7F99;strokeColor=light-dark(#D0CEE2,#E6E6E6);shadow=1;textShadow=0;html=1;" parent="1" vertex="1">
          <mxGeometry x="-60" y="200" width="380" height="270" as="geometry" />
        </mxCell>
        <mxCell id="NSskydTmlTYRemo2YeHl-2" value="" style="shape=tableRow;horizontal=0;startSize=0;swimlaneHead=0;swimlaneBody=0;fillColor=none;collapsible=0;dropTarget=0;points=[[0,0.5],[1,0.5]];portConstraint=eastwest;top=0;left=0;right=0;bottom=1;rounded=1;strokeColor=light-dark(#D0CEE2,#E6E6E6);shadow=1;textShadow=0;html=1;" parent="NSskydTmlTYRemo2YeHl-1" vertex="1">
          <mxGeometry y="30" width="380" height="30" as="geometry" />
        </mxCell>
        <mxCell id="NSskydTmlTYRemo2YeHl-3" value="PK" style="shape=partialRectangle;connectable=0;fillColor=none;top=0;left=0;bottom=0;right=0;overflow=hidden;rounded=1;strokeColor=light-dark(#D0CEE2,#E6E6E6);shadow=1;textShadow=0;html=1;" parent="NSskydTmlTYRemo2YeHl-2" vertex="1">
          <mxGeometry width="30" height="30" as="geometry">
            <mxRectangle width="30" height="30" as="alternateBounds" />
          </mxGeometry>
        </mxCell>
        <mxCell id="NSskydTmlTYRemo2YeHl-4" value="IDÂ " style="shape=partialRectangle;connectable=0;fillColor=none;top=0;left=0;bottom=0;right=0;align=left;spacingLeft=6;overflow=hidden;rounded=1;strokeColor=light-dark(#D0CEE2,#E6E6E6);shadow=1;textShadow=0;html=1;" parent="NSskydTmlTYRemo2YeHl-2" vertex="1">
          <mxGeometry x="30" width="150" height="30" as="geometry">
            <mxRectangle width="150" height="30" as="alternateBounds" />
          </mxGeometry>
        </mxCell>
        <mxCell id="NSskydTmlTYRemo2YeHl-76" value="int" style="shape=partialRectangle;connectable=0;fillColor=none;top=0;left=0;bottom=0;right=0;align=left;spacingLeft=6;overflow=hidden;rounded=1;strokeColor=light-dark(#D0CEE2,#E6E6E6);shadow=1;textShadow=0;html=1;" parent="NSskydTmlTYRemo2YeHl-2" vertex="1">
          <mxGeometry x="180" width="80" height="30" as="geometry">
            <mxRectangle width="80" height="30" as="alternateBounds" />
          </mxGeometry>
        </mxCell>
        <mxCell id="NSskydTmlTYRemo2YeHl-84" value="" style="shape=partialRectangle;connectable=0;fillColor=none;top=0;left=0;bottom=0;right=0;align=left;spacingLeft=6;overflow=hidden;rounded=1;strokeColor=light-dark(#D0CEE2,#E6E6E6);shadow=1;textShadow=0;html=1;" parent="NSskydTmlTYRemo2YeHl-2" vertex="1">
          <mxGeometry x="260" width="120" height="30" as="geometry">
            <mxRectangle width="120" height="30" as="alternateBounds" />
          </mxGeometry>
        </mxCell>
        <mxCell id="NSskydTmlTYRemo2YeHl-5" value="" style="shape=tableRow;horizontal=0;startSize=0;swimlaneHead=0;swimlaneBody=0;fillColor=none;collapsible=0;dropTarget=0;points=[[0,0.5],[1,0.5]];portConstraint=eastwest;top=0;left=0;right=0;bottom=0;rounded=1;strokeColor=light-dark(#D0CEE2,#E6E6E6);shadow=1;textShadow=0;html=1;" parent="NSskydTmlTYRemo2YeHl-1" vertex="1">
          <mxGeometry y="60" width="380" height="30" as="geometry" />
        </mxCell>
        <mxCell id="NSskydTmlTYRemo2YeHl-6" value="" style="shape=partialRectangle;connectable=0;fillColor=none;top=0;left=0;bottom=0;right=0;editable=1;overflow=hidden;rounded=1;strokeColor=light-dark(#D0CEE2,#E6E6E6);shadow=1;textShadow=0;html=1;" parent="NSskydTmlTYRemo2YeHl-5" vertex="1">
          <mxGeometry width="30" height="30" as="geometry">
            <mxRectangle width="30" height="30" as="alternateBounds" />
          </mxGeometry>
        </mxCell>
        <mxCell id="NSskydTmlTYRemo2YeHl-7" value="email" style="shape=partialRectangle;connectable=0;fillColor=none;top=0;left=0;bottom=0;right=0;align=left;spacingLeft=6;overflow=hidden;rounded=1;strokeColor=light-dark(#D0CEE2,#E6E6E6);shadow=1;textShadow=0;html=1;" parent="NSskydTmlTYRemo2YeHl-5" vertex="1">
          <mxGeometry x="30" width="150" height="30" as="geometry">
            <mxRectangle width="150" height="30" as="alternateBounds" />
          </mxGeometry>
        </mxCell>
        <mxCell id="NSskydTmlTYRemo2YeHl-77" value="varchar(254)&amp;nbsp;" style="shape=partialRectangle;connectable=0;fillColor=none;top=0;left=0;bottom=0;right=0;align=left;spacingLeft=6;overflow=hidden;rounded=1;strokeColor=light-dark(#D0CEE2,#E6E6E6);shadow=1;textShadow=0;html=1;" parent="NSskydTmlTYRemo2YeHl-5" vertex="1">
          <mxGeometry x="180" width="80" height="30" as="geometry">
            <mxRectangle width="80" height="30" as="alternateBounds" />
          </mxGeometry>
        </mxCell>
        <mxCell id="NSskydTmlTYRemo2YeHl-85" value="unique not null" style="shape=partialRectangle;connectable=0;fillColor=none;top=0;left=0;bottom=0;right=0;align=left;spacingLeft=6;overflow=hidden;rounded=1;strokeColor=light-dark(#D0CEE2,#E6E6E6);shadow=1;textShadow=0;html=1;" parent="NSskydTmlTYRemo2YeHl-5" vertex="1">
          <mxGeometry x="260" width="120" height="30" as="geometry">
            <mxRectangle width="120" height="30" as="alternateBounds" />
          </mxGeometry>
        </mxCell>
        <mxCell id="NSskydTmlTYRemo2YeHl-8" value="" style="shape=tableRow;horizontal=0;startSize=0;swimlaneHead=0;swimlaneBody=0;fillColor=none;collapsible=0;dropTarget=0;points=[[0,0.5],[1,0.5]];portConstraint=eastwest;top=0;left=0;right=0;bottom=0;rounded=1;strokeColor=light-dark(#D0CEE2,#E6E6E6);shadow=1;textShadow=0;html=1;" parent="NSskydTmlTYRemo2YeHl-1" vertex="1">
          <mxGeometry y="90" width="380" height="30" as="geometry" />
        </mxCell>
        <mxCell id="NSskydTmlTYRemo2YeHl-9" value="" style="shape=partialRectangle;connectable=0;fillColor=none;top=0;left=0;bottom=0;right=0;editable=1;overflow=hidden;rounded=1;strokeColor=light-dark(#D0CEE2,#E6E6E6);shadow=1;textShadow=0;html=1;" parent="NSskydTmlTYRemo2YeHl-8" vertex="1">
          <mxGeometry width="30" height="30" as="geometry">
            <mxRectangle width="30" height="30" as="alternateBounds" />
          </mxGeometry>
        </mxCell>
        <mxCell id="NSskydTmlTYRemo2YeHl-10" value="password_hash" style="shape=partialRectangle;connectable=0;fillColor=none;top=0;left=0;bottom=0;right=0;align=left;spacingLeft=6;overflow=hidden;rounded=1;strokeColor=light-dark(#D0CEE2,#E6E6E6);shadow=1;textShadow=0;html=1;" parent="NSskydTmlTYRemo2YeHl-8" vertex="1">
          <mxGeometry x="30" width="150" height="30" as="geometry">
            <mxRectangle width="150" height="30" as="alternateBounds" />
          </mxGeometry>
        </mxCell>
        <mxCell id="NSskydTmlTYRemo2YeHl-78" value="text" style="shape=partialRectangle;connectable=0;fillColor=none;top=0;left=0;bottom=0;right=0;align=left;spacingLeft=6;overflow=hidden;rounded=1;strokeColor=light-dark(#D0CEE2,#E6E6E6);shadow=1;textShadow=0;html=1;" parent="NSskydTmlTYRemo2YeHl-8" vertex="1">
          <mxGeometry x="180" width="80" height="30" as="geometry">
            <mxRectangle width="80" height="30" as="alternateBounds" />
          </mxGeometry>
        </mxCell>
        <mxCell id="NSskydTmlTYRemo2YeHl-86" value="not null" style="shape=partialRectangle;connectable=0;fillColor=none;top=0;left=0;bottom=0;right=0;align=left;spacingLeft=6;overflow=hidden;rounded=1;strokeColor=light-dark(#D0CEE2,#E6E6E6);shadow=1;textShadow=0;html=1;" parent="NSskydTmlTYRemo2YeHl-8" vertex="1">
          <mxGeometry x="260" width="120" height="30" as="geometry">
            <mxRectangle width="120" height="30" as="alternateBounds" />
          </mxGeometry>
        </mxCell>
        <mxCell id="NSskydTmlTYRemo2YeHl-11" value="" style="shape=tableRow;horizontal=0;startSize=0;swimlaneHead=0;swimlaneBody=0;fillColor=none;collapsible=0;dropTarget=0;points=[[0,0.5],[1,0.5]];portConstraint=eastwest;top=0;left=0;right=0;bottom=0;rounded=1;strokeColor=light-dark(#D0CEE2,#E6E6E6);shadow=1;textShadow=0;html=1;" parent="NSskydTmlTYRemo2YeHl-1" vertex="1">
          <mxGeometry y="120" width="380" height="30" as="geometry" />
        </mxCell>
        <mxCell id="NSskydTmlTYRemo2YeHl-12" value="" style="shape=partialRectangle;connectable=0;fillColor=none;top=0;left=0;bottom=0;right=0;editable=1;overflow=hidden;rounded=1;strokeColor=light-dark(#D0CEE2,#E6E6E6);shadow=1;textShadow=0;html=1;" parent="NSskydTmlTYRemo2YeHl-11" vertex="1">
          <mxGeometry width="30" height="30" as="geometry">
            <mxRectangle width="30" height="30" as="alternateBounds" />
          </mxGeometry>
        </mxCell>
        <mxCell id="NSskydTmlTYRemo2YeHl-13" value="is_enabled" style="shape=partialRectangle;connectable=0;fillColor=none;top=0;left=0;bottom=0;right=0;align=left;spacingLeft=6;overflow=hidden;rounded=1;strokeColor=light-dark(#D0CEE2,#E6E6E6);shadow=1;textShadow=0;html=1;" parent="NSskydTmlTYRemo2YeHl-11" vertex="1">
          <mxGeometry x="30" width="150" height="30" as="geometry">
            <mxRectangle width="150" height="30" as="alternateBounds" />
          </mxGeometry>
        </mxCell>
        <mxCell id="NSskydTmlTYRemo2YeHl-79" value="boolean" style="shape=partialRectangle;connectable=0;fillColor=none;top=0;left=0;bottom=0;right=0;align=left;spacingLeft=6;overflow=hidden;rounded=1;strokeColor=light-dark(#D0CEE2,#E6E6E6);shadow=1;textShadow=0;html=1;" parent="NSskydTmlTYRemo2YeHl-11" vertex="1">
          <mxGeometry x="180" width="80" height="30" as="geometry">
            <mxRectangle width="80" height="30" as="alternateBounds" />
          </mxGeometry>
        </mxCell>
        <mxCell id="NSskydTmlTYRemo2YeHl-87" value="not null" style="shape=partialRectangle;connectable=0;fillColor=none;top=0;left=0;bottom=0;right=0;align=left;spacingLeft=6;overflow=hidden;rounded=1;strokeColor=light-dark(#D0CEE2,#E6E6E6);shadow=1;textShadow=0;html=1;" parent="NSskydTmlTYRemo2YeHl-11" vertex="1">
          <mxGeometry x="260" width="120" height="30" as="geometry">
            <mxRectangle width="120" height="30" as="alternateBounds" />
          </mxGeometry>
        </mxCell>
        <mxCell id="NSskydTmlTYRemo2YeHl-38" value="" style="shape=tableRow;horizontal=0;startSize=0;swimlaneHead=0;swimlaneBody=0;fillColor=none;collapsible=0;dropTarget=0;points=[[0,0.5],[1,0.5]];portConstraint=eastwest;top=0;left=0;right=0;bottom=0;rounded=1;strokeColor=light-dark(#D0CEE2,#E6E6E6);shadow=1;textShadow=0;html=1;" parent="NSskydTmlTYRemo2YeHl-1" vertex="1">
          <mxGeometry y="150" width="380" height="30" as="geometry" />
        </mxCell>
        <mxCell id="NSskydTmlTYRemo2YeHl-39" value="" style="shape=partialRectangle;connectable=0;fillColor=none;top=0;left=0;bottom=0;right=0;editable=1;overflow=hidden;rounded=1;strokeColor=light-dark(#D0CEE2,#E6E6E6);shadow=1;textShadow=0;html=1;" parent="NSskydTmlTYRemo2YeHl-38" vertex="1">
          <mxGeometry width="30" height="30" as="geometry">
            <mxRectangle width="30" height="30" as="alternateBounds" />
          </mxGeometry>
        </mxCell>
        <mxCell id="NSskydTmlTYRemo2YeHl-40" value="used_storage_in_bytes" style="shape=partialRectangle;connectable=0;fillColor=none;top=0;left=0;bottom=0;right=0;align=left;spacingLeft=6;overflow=hidden;rounded=1;strokeColor=light-dark(#D0CEE2,#E6E6E6);shadow=1;textShadow=0;html=1;" parent="NSskydTmlTYRemo2YeHl-38" vertex="1">
          <mxGeometry x="30" width="150" height="30" as="geometry">
            <mxRectangle width="150" height="30" as="alternateBounds" />
          </mxGeometry>
        </mxCell>
        <mxCell id="NSskydTmlTYRemo2YeHl-80" value="int" style="shape=partialRectangle;connectable=0;fillColor=none;top=0;left=0;bottom=0;right=0;align=left;spacingLeft=6;overflow=hidden;rounded=1;strokeColor=light-dark(#D0CEE2,#E6E6E6);shadow=1;textShadow=0;html=1;" parent="NSskydTmlTYRemo2YeHl-38" vertex="1">
          <mxGeometry x="180" width="80" height="30" as="geometry">
            <mxRectangle width="80" height="30" as="alternateBounds" />
          </mxGeometry>
        </mxCell>
        <mxCell id="NSskydTmlTYRemo2YeHl-88" value="not null" style="shape=partialRectangle;connectable=0;fillColor=none;top=0;left=0;bottom=0;right=0;align=left;spacingLeft=6;overflow=hidden;rounded=1;strokeColor=light-dark(#D0CEE2,#E6E6E6);shadow=1;textShadow=0;html=1;" parent="NSskydTmlTYRemo2YeHl-38" vertex="1">
          <mxGeometry x="260" width="120" height="30" as="geometry">
            <mxRectangle width="120" height="30" as="alternateBounds" />
          </mxGeometry>
        </mxCell>
        <mxCell id="NSskydTmlTYRemo2YeHl-35" value="" style="shape=tableRow;horizontal=0;startSize=0;swimlaneHead=0;swimlaneBody=0;fillColor=none;collapsible=0;dropTarget=0;points=[[0,0.5],[1,0.5]];portConstraint=eastwest;top=0;left=0;right=0;bottom=0;rounded=1;strokeColor=light-dark(#D0CEE2,#E6E6E6);shadow=1;textShadow=0;html=1;" parent="NSskydTmlTYRemo2YeHl-1" vertex="1">
          <mxGeometry y="180" width="380" height="30" as="geometry" />
        </mxCell>
        <mxCell id="NSskydTmlTYRemo2YeHl-36" value="" style="shape=partialRectangle;connectable=0;fillColor=none;top=0;left=0;bottom=0;right=0;editable=1;overflow=hidden;rounded=1;strokeColor=light-dark(#D0CEE2,#E6E6E6);shadow=1;textShadow=0;html=1;" parent="NSskydTmlTYRemo2YeHl-35" vertex="1">
          <mxGeometry width="30" height="30" as="geometry">
            <mxRectangle width="30" height="30" as="alternateBounds" />
          </mxGeometry>
        </mxCell>
        <mxCell id="NSskydTmlTYRemo2YeHl-37" value="max_storage_in_bytes" style="shape=partialRectangle;connectable=0;fillColor=none;top=0;left=0;bottom=0;right=0;align=left;spacingLeft=6;overflow=hidden;rounded=1;strokeColor=light-dark(#D0CEE2,#E6E6E6);shadow=1;textShadow=0;html=1;" parent="NSskydTmlTYRemo2YeHl-35" vertex="1">
          <mxGeometry x="30" width="150" height="30" as="geometry">
            <mxRectangle width="150" height="30" as="alternateBounds" />
          </mxGeometry>
        </mxCell>
        <mxCell id="NSskydTmlTYRemo2YeHl-81" value="int" style="shape=partialRectangle;connectable=0;fillColor=none;top=0;left=0;bottom=0;right=0;align=left;spacingLeft=6;overflow=hidden;rounded=1;strokeColor=light-dark(#D0CEE2,#E6E6E6);shadow=1;textShadow=0;html=1;" parent="NSskydTmlTYRemo2YeHl-35" vertex="1">
          <mxGeometry x="180" width="80" height="30" as="geometry">
            <mxRectangle width="80" height="30" as="alternateBounds" />
          </mxGeometry>
        </mxCell>
        <mxCell id="NSskydTmlTYRemo2YeHl-89" value="not null" style="shape=partialRectangle;connectable=0;fillColor=none;top=0;left=0;bottom=0;right=0;align=left;spacingLeft=6;overflow=hidden;rounded=1;strokeColor=light-dark(#D0CEE2,#E6E6E6);shadow=1;textShadow=0;html=1;" parent="NSskydTmlTYRemo2YeHl-35" vertex="1">
          <mxGeometry x="260" width="120" height="30" as="geometry">
            <mxRectangle width="120" height="30" as="alternateBounds" />
          </mxGeometry>
        </mxCell>
        <mxCell id="NSskydTmlTYRemo2YeHl-29" value="" style="shape=tableRow;horizontal=0;startSize=0;swimlaneHead=0;swimlaneBody=0;fillColor=none;collapsible=0;dropTarget=0;points=[[0,0.5],[1,0.5]];portConstraint=eastwest;top=0;left=0;right=0;bottom=0;rounded=1;strokeColor=light-dark(#D0CEE2,#E6E6E6);shadow=1;textShadow=0;html=1;" parent="NSskydTmlTYRemo2YeHl-1" vertex="1">
          <mxGeometry y="210" width="380" height="30" as="geometry" />
        </mxCell>
        <mxCell id="NSskydTmlTYRemo2YeHl-30" value="" style="shape=partialRectangle;connectable=0;fillColor=none;top=0;left=0;bottom=0;right=0;editable=1;overflow=hidden;rounded=1;strokeColor=light-dark(#D0CEE2,#E6E6E6);shadow=1;textShadow=0;html=1;" parent="NSskydTmlTYRemo2YeHl-29" vertex="1">
          <mxGeometry width="30" height="30" as="geometry">
            <mxRectangle width="30" height="30" as="alternateBounds" />
          </mxGeometry>
        </mxCell>
        <mxCell id="NSskydTmlTYRemo2YeHl-31" value="created_at" style="shape=partialRectangle;connectable=0;fillColor=none;top=0;left=0;bottom=0;right=0;align=left;spacingLeft=6;overflow=hidden;rounded=1;strokeColor=light-dark(#D0CEE2,#E6E6E6);shadow=1;textShadow=0;html=1;" parent="NSskydTmlTYRemo2YeHl-29" vertex="1">
          <mxGeometry x="30" width="150" height="30" as="geometry">
            <mxRectangle width="150" height="30" as="alternateBounds" />
          </mxGeometry>
        </mxCell>
        <mxCell id="NSskydTmlTYRemo2YeHl-82" value="timestamptz" style="shape=partialRectangle;connectable=0;fillColor=none;top=0;left=0;bottom=0;right=0;align=left;spacingLeft=6;overflow=hidden;rounded=1;strokeColor=light-dark(#D0CEE2,#E6E6E6);shadow=1;textShadow=0;html=1;" parent="NSskydTmlTYRemo2YeHl-29" vertex="1">
          <mxGeometry x="180" width="80" height="30" as="geometry">
            <mxRectangle width="80" height="30" as="alternateBounds" />
          </mxGeometry>
        </mxCell>
        <mxCell id="NSskydTmlTYRemo2YeHl-90" value="not null" style="shape=partialRectangle;connectable=0;fillColor=none;top=0;left=0;bottom=0;right=0;align=left;spacingLeft=6;overflow=hidden;rounded=1;strokeColor=light-dark(#D0CEE2,#E6E6E6);shadow=1;textShadow=0;html=1;" parent="NSskydTmlTYRemo2YeHl-29" vertex="1">
          <mxGeometry x="260" width="120" height="30" as="geometry">
            <mxRectangle width="120" height="30" as="alternateBounds" />
          </mxGeometry>
        </mxCell>
        <mxCell id="NSskydTmlTYRemo2YeHl-32" value="" style="shape=tableRow;horizontal=0;startSize=0;swimlaneHead=0;swimlaneBody=0;fillColor=none;collapsible=0;dropTarget=0;points=[[0,0.5],[1,0.5]];portConstraint=eastwest;top=0;left=0;right=0;bottom=0;rounded=1;strokeColor=light-dark(#D0CEE2,#E6E6E6);shadow=1;textShadow=0;html=1;" parent="NSskydTmlTYRemo2YeHl-1" vertex="1">
          <mxGeometry y="240" width="380" height="30" as="geometry" />
        </mxCell>
        <mxCell id="NSskydTmlTYRemo2YeHl-33" value="" style="shape=partialRectangle;connectable=0;fillColor=none;top=0;left=0;bottom=0;right=0;editable=1;overflow=hidden;rounded=1;strokeColor=light-dark(#D0CEE2,#E6E6E6);shadow=1;textShadow=0;html=1;" parent="NSskydTmlTYRemo2YeHl-32" vertex="1">
          <mxGeometry width="30" height="30" as="geometry">
            <mxRectangle width="30" height="30" as="alternateBounds" />
          </mxGeometry>
        </mxCell>
        <mxCell id="NSskydTmlTYRemo2YeHl-34" value="updated_at" style="shape=partialRectangle;connectable=0;fillColor=none;top=0;left=0;bottom=0;right=0;align=left;spacingLeft=6;overflow=hidden;rounded=1;strokeColor=light-dark(#D0CEE2,#E6E6E6);shadow=1;textShadow=0;html=1;" parent="NSskydTmlTYRemo2YeHl-32" vertex="1">
          <mxGeometry x="30" width="150" height="30" as="geometry">
            <mxRectangle width="150" height="30" as="alternateBounds" />
          </mxGeometry>
        </mxCell>
        <mxCell id="NSskydTmlTYRemo2YeHl-83" value="timestamptz" style="shape=partialRectangle;connectable=0;fillColor=none;top=0;left=0;bottom=0;right=0;align=left;spacingLeft=6;overflow=hidden;rounded=1;strokeColor=light-dark(#D0CEE2,#E6E6E6);shadow=1;textShadow=0;html=1;" parent="NSskydTmlTYRemo2YeHl-32" vertex="1">
          <mxGeometry x="180" width="80" height="30" as="geometry">
            <mxRectangle width="80" height="30" as="alternateBounds" />
          </mxGeometry>
        </mxCell>
        <mxCell id="NSskydTmlTYRemo2YeHl-91" value="not null" style="shape=partialRectangle;connectable=0;fillColor=none;top=0;left=0;bottom=0;right=0;align=left;spacingLeft=6;overflow=hidden;rounded=1;strokeColor=light-dark(#D0CEE2,#E6E6E6);shadow=1;textShadow=0;html=1;" parent="NSskydTmlTYRemo2YeHl-32" vertex="1">
          <mxGeometry x="260" width="120" height="30" as="geometry">
            <mxRectangle width="120" height="30" as="alternateBounds" />
          </mxGeometry>
        </mxCell>
        <mxCell id="NSskydTmlTYRemo2YeHl-41" value="droplet.public.profile" style="shape=table;startSize=30;container=1;collapsible=1;childLayout=tableLayout;fixedRows=1;rowLines=0;align=center;resizeLast=1;rounded=1;fillColor=#5D7F99;strokeColor=light-dark(#D0CEE2,#E6E6E6);shadow=1;textShadow=0;html=1;" parent="1" vertex="1">
          <mxGeometry x="480" y="200" width="370" height="240" as="geometry" />
        </mxCell>
        <mxCell id="NSskydTmlTYRemo2YeHl-42" value="" style="shape=tableRow;horizontal=0;startSize=0;swimlaneHead=0;swimlaneBody=0;fillColor=none;collapsible=0;dropTarget=0;points=[[0,0.5],[1,0.5]];portConstraint=eastwest;top=0;left=0;right=0;bottom=1;rounded=1;strokeColor=light-dark(#D0CEE2,#E6E6E6);shadow=1;textShadow=0;html=1;" parent="NSskydTmlTYRemo2YeHl-41" vertex="1">
          <mxGeometry y="30" width="370" height="30" as="geometry" />
        </mxCell>
        <mxCell id="NSskydTmlTYRemo2YeHl-43" value="PK" style="shape=partialRectangle;connectable=0;fillColor=none;top=0;left=0;bottom=0;right=0;overflow=hidden;rounded=1;strokeColor=light-dark(#D0CEE2,#E6E6E6);shadow=1;textShadow=0;html=1;" parent="NSskydTmlTYRemo2YeHl-42" vertex="1">
          <mxGeometry width="30" height="30" as="geometry">
            <mxRectangle width="30" height="30" as="alternateBounds" />
          </mxGeometry>
        </mxCell>
        <mxCell id="NSskydTmlTYRemo2YeHl-44" value="IDÂ " style="shape=partialRectangle;connectable=0;fillColor=none;top=0;left=0;bottom=0;right=0;align=left;spacingLeft=6;overflow=hidden;rounded=1;strokeColor=light-dark(#D0CEE2,#E6E6E6);shadow=1;textShadow=0;html=1;" parent="NSskydTmlTYRemo2YeHl-42" vertex="1">
          <mxGeometry x="30" width="185" height="30" as="geometry">
            <mxRectangle width="185" height="30" as="alternateBounds" />
          </mxGeometry>
        </mxCell>
        <mxCell id="NSskydTmlTYRemo2YeHl-92" value="int" style="shape=partialRectangle;connectable=0;fillColor=none;top=0;left=0;bottom=0;right=0;align=left;spacingLeft=6;overflow=hidden;rounded=1;strokeColor=light-dark(#D0CEE2,#E6E6E6);shadow=1;textShadow=0;html=1;" parent="NSskydTmlTYRemo2YeHl-42" vertex="1">
          <mxGeometry x="215" width="95" height="30" as="geometry">
            <mxRectangle width="95" height="30" as="alternateBounds" />
          </mxGeometry>
        </mxCell>
        <mxCell id="NSskydTmlTYRemo2YeHl-99" value="" style="shape=partialRectangle;connectable=0;fillColor=none;top=0;left=0;bottom=0;right=0;align=left;spacingLeft=6;overflow=hidden;rounded=1;strokeColor=light-dark(#D0CEE2,#E6E6E6);shadow=1;textShadow=0;html=1;" parent="NSskydTmlTYRemo2YeHl-42" vertex="1">
          <mxGeometry x="310" width="60" height="30" as="geometry">
            <mxRectangle width="60" height="30" as="alternateBounds" />
          </mxGeometry>
        </mxCell>
        <mxCell id="NSskydTmlTYRemo2YeHl-45" value="" style="shape=tableRow;horizontal=0;startSize=0;swimlaneHead=0;swimlaneBody=0;fillColor=none;collapsible=0;dropTarget=0;points=[[0,0.5],[1,0.5]];portConstraint=eastwest;top=0;left=0;right=0;bottom=0;rounded=1;strokeColor=light-dark(#D0CEE2,#E6E6E6);shadow=1;textShadow=0;html=1;" parent="NSskydTmlTYRemo2YeHl-41" vertex="1">
          <mxGeometry y="60" width="370" height="30" as="geometry" />
        </mxCell>
        <mxCell id="NSskydTmlTYRemo2YeHl-46" value="FK" style="shape=partialRectangle;connectable=0;fillColor=none;top=0;left=0;bottom=0;right=0;editable=1;overflow=hidden;rounded=1;strokeColor=light-dark(#D0CEE2,#E6E6E6);shadow=1;textShadow=0;html=1;" parent="NSskydTmlTYRemo2YeHl-45" vertex="1">
          <mxGeometry width="30" height="30" as="geometry">
            <mxRectangle width="30" height="30" as="alternateBounds" />
          </mxGeometry>
        </mxCell>
        <mxCell id="NSskydTmlTYRemo2YeHl-47" value="account_id" style="shape=partialRectangle;connectable=0;fillColor=none;top=0;left=0;bottom=0;right=0;align=left;spacingLeft=6;overflow=hidden;rounded=1;strokeColor=light-dark(#D0CEE2,#E6E6E6);shadow=1;textShadow=0;html=1;" parent="NSskydTmlTYRemo2YeHl-45" vertex="1">
          <mxGeometry x="30" width="185" height="30" as="geometry">
            <mxRectangle width="185" height="30" as="alternateBounds" />
          </mxGeometry>
        </mxCell>
        <mxCell id="NSskydTmlTYRemo2YeHl-93" value="int" style="shape=partialRectangle;connectable=0;fillColor=none;top=0;left=0;bottom=0;right=0;align=left;spacingLeft=6;overflow=hidden;rounded=1;strokeColor=light-dark(#D0CEE2,#E6E6E6);shadow=1;textShadow=0;html=1;" parent="NSskydTmlTYRemo2YeHl-45" vertex="1">
          <mxGeometry x="215" width="95" height="30" as="geometry">
            <mxRectangle width="95" height="30" as="alternateBounds" />
          </mxGeometry>
        </mxCell>
        <mxCell id="NSskydTmlTYRemo2YeHl-100" value="not null" style="shape=partialRectangle;connectable=0;fillColor=none;top=0;left=0;bottom=0;right=0;align=left;spacingLeft=6;overflow=hidden;rounded=1;strokeColor=light-dark(#D0CEE2,#E6E6E6);shadow=1;textShadow=0;html=1;" parent="NSskydTmlTYRemo2YeHl-45" vertex="1">
          <mxGeometry x="310" width="60" height="30" as="geometry">
            <mxRectangle width="60" height="30" as="alternateBounds" />
          </mxGeometry>
        </mxCell>
        <mxCell id="NSskydTmlTYRemo2YeHl-48" value="" style="shape=tableRow;horizontal=0;startSize=0;swimlaneHead=0;swimlaneBody=0;fillColor=none;collapsible=0;dropTarget=0;points=[[0,0.5],[1,0.5]];portConstraint=eastwest;top=0;left=0;right=0;bottom=0;rounded=1;strokeColor=light-dark(#D0CEE2,#E6E6E6);shadow=1;textShadow=0;html=1;" parent="NSskydTmlTYRemo2YeHl-41" vertex="1">
          <mxGeometry y="90" width="370" height="30" as="geometry" />
        </mxCell>
        <mxCell id="NSskydTmlTYRemo2YeHl-49" value="" style="shape=partialRectangle;connectable=0;fillColor=none;top=0;left=0;bottom=0;right=0;editable=1;overflow=hidden;rounded=1;strokeColor=light-dark(#D0CEE2,#E6E6E6);shadow=1;textShadow=0;html=1;" parent="NSskydTmlTYRemo2YeHl-48" vertex="1">
          <mxGeometry width="30" height="30" as="geometry">
            <mxRectangle width="30" height="30" as="alternateBounds" />
          </mxGeometry>
        </mxCell>
        <mxCell id="NSskydTmlTYRemo2YeHl-50" value="name" style="shape=partialRectangle;connectable=0;fillColor=none;top=0;left=0;bottom=0;right=0;align=left;spacingLeft=6;overflow=hidden;rounded=1;strokeColor=light-dark(#D0CEE2,#E6E6E6);shadow=1;textShadow=0;html=1;" parent="NSskydTmlTYRemo2YeHl-48" vertex="1">
          <mxGeometry x="30" width="185" height="30" as="geometry">
            <mxRectangle width="185" height="30" as="alternateBounds" />
          </mxGeometry>
        </mxCell>
        <mxCell id="NSskydTmlTYRemo2YeHl-94" value="varchar(255)" style="shape=partialRectangle;connectable=0;fillColor=none;top=0;left=0;bottom=0;right=0;align=left;spacingLeft=6;overflow=hidden;rounded=1;strokeColor=light-dark(#D0CEE2,#E6E6E6);shadow=1;textShadow=0;html=1;" parent="NSskydTmlTYRemo2YeHl-48" vertex="1">
          <mxGeometry x="215" width="95" height="30" as="geometry">
            <mxRectangle width="95" height="30" as="alternateBounds" />
          </mxGeometry>
        </mxCell>
        <mxCell id="NSskydTmlTYRemo2YeHl-101" value="not null" style="shape=partialRectangle;connectable=0;fillColor=none;top=0;left=0;bottom=0;right=0;align=left;spacingLeft=6;overflow=hidden;rounded=1;strokeColor=light-dark(#D0CEE2,#E6E6E6);shadow=1;textShadow=0;html=1;" parent="NSskydTmlTYRemo2YeHl-48" vertex="1">
          <mxGeometry x="310" width="60" height="30" as="geometry">
            <mxRectangle width="60" height="30" as="alternateBounds" />
          </mxGeometry>
        </mxCell>
        <mxCell id="NSskydTmlTYRemo2YeHl-51" value="" style="shape=tableRow;horizontal=0;startSize=0;swimlaneHead=0;swimlaneBody=0;fillColor=none;collapsible=0;dropTarget=0;points=[[0,0.5],[1,0.5]];portConstraint=eastwest;top=0;left=0;right=0;bottom=0;rounded=1;strokeColor=light-dark(#D0CEE2,#E6E6E6);shadow=1;textShadow=0;html=1;" parent="NSskydTmlTYRemo2YeHl-41" vertex="1">
          <mxGeometry y="120" width="370" height="30" as="geometry" />
        </mxCell>
        <mxCell id="NSskydTmlTYRemo2YeHl-52" value="" style="shape=partialRectangle;connectable=0;fillColor=none;top=0;left=0;bottom=0;right=0;editable=1;overflow=hidden;rounded=1;strokeColor=light-dark(#D0CEE2,#E6E6E6);shadow=1;textShadow=0;html=1;" parent="NSskydTmlTYRemo2YeHl-51" vertex="1">
          <mxGeometry width="30" height="30" as="geometry">
            <mxRectangle width="30" height="30" as="alternateBounds" />
          </mxGeometry>
        </mxCell>
        <mxCell id="NSskydTmlTYRemo2YeHl-53" value="preferred_tz" style="shape=partialRectangle;connectable=0;fillColor=none;top=0;left=0;bottom=0;right=0;align=left;spacingLeft=6;overflow=hidden;rounded=1;strokeColor=light-dark(#D0CEE2,#E6E6E6);shadow=1;textShadow=0;html=1;" parent="NSskydTmlTYRemo2YeHl-51" vertex="1">
          <mxGeometry x="30" width="185" height="30" as="geometry">
            <mxRectangle width="185" height="30" as="alternateBounds" />
          </mxGeometry>
        </mxCell>
        <mxCell id="NSskydTmlTYRemo2YeHl-95" value="text" style="shape=partialRectangle;connectable=0;fillColor=none;top=0;left=0;bottom=0;right=0;align=left;spacingLeft=6;overflow=hidden;rounded=1;strokeColor=light-dark(#D0CEE2,#E6E6E6);shadow=1;textShadow=0;html=1;" parent="NSskydTmlTYRemo2YeHl-51" vertex="1">
          <mxGeometry x="215" width="95" height="30" as="geometry">
            <mxRectangle width="95" height="30" as="alternateBounds" />
          </mxGeometry>
        </mxCell>
        <mxCell id="NSskydTmlTYRemo2YeHl-102" value="not null" style="shape=partialRectangle;connectable=0;fillColor=none;top=0;left=0;bottom=0;right=0;align=left;spacingLeft=6;overflow=hidden;rounded=1;strokeColor=light-dark(#D0CEE2,#E6E6E6);shadow=1;textShadow=0;html=1;" parent="NSskydTmlTYRemo2YeHl-51" vertex="1">
          <mxGeometry x="310" width="60" height="30" as="geometry">
            <mxRectangle width="60" height="30" as="alternateBounds" />
          </mxGeometry>
        </mxCell>
        <mxCell id="NSskydTmlTYRemo2YeHl-73" value="" style="shape=tableRow;horizontal=0;startSize=0;swimlaneHead=0;swimlaneBody=0;fillColor=none;collapsible=0;dropTarget=0;points=[[0,0.5],[1,0.5]];portConstraint=eastwest;top=0;left=0;right=0;bottom=0;rounded=1;strokeColor=light-dark(#D0CEE2,#E6E6E6);shadow=1;textShadow=0;html=1;" parent="NSskydTmlTYRemo2YeHl-41" vertex="1">
          <mxGeometry y="150" width="370" height="30" as="geometry" />
        </mxCell>
        <mxCell id="NSskydTmlTYRemo2YeHl-74" value="" style="shape=partialRectangle;connectable=0;fillColor=none;top=0;left=0;bottom=0;right=0;editable=1;overflow=hidden;rounded=1;strokeColor=light-dark(#D0CEE2,#E6E6E6);shadow=1;textShadow=0;html=1;" parent="NSskydTmlTYRemo2YeHl-73" vertex="1">
          <mxGeometry width="30" height="30" as="geometry">
            <mxRectangle width="30" height="30" as="alternateBounds" />
          </mxGeometry>
        </mxCell>
        <mxCell id="NSskydTmlTYRemo2YeHl-75" value="container_name" style="shape=partialRectangle;connectable=0;fillColor=none;top=0;left=0;bottom=0;right=0;align=left;spacingLeft=6;overflow=hidden;rounded=1;strokeColor=light-dark(#D0CEE2,#E6E6E6);shadow=1;textShadow=0;html=1;" parent="NSskydTmlTYRemo2YeHl-73" vertex="1">
          <mxGeometry x="30" width="185" height="30" as="geometry">
            <mxRectangle width="185" height="30" as="alternateBounds" />
          </mxGeometry>
        </mxCell>
        <mxCell id="NSskydTmlTYRemo2YeHl-96" value="varchar(255)" style="shape=partialRectangle;connectable=0;fillColor=none;top=0;left=0;bottom=0;right=0;align=left;spacingLeft=6;overflow=hidden;rounded=1;strokeColor=light-dark(#D0CEE2,#E6E6E6);shadow=1;textShadow=0;html=1;" parent="NSskydTmlTYRemo2YeHl-73" vertex="1">
          <mxGeometry x="215" width="95" height="30" as="geometry">
            <mxRectangle width="95" height="30" as="alternateBounds" />
          </mxGeometry>
        </mxCell>
        <mxCell id="NSskydTmlTYRemo2YeHl-103" value="not null" style="shape=partialRectangle;connectable=0;fillColor=none;top=0;left=0;bottom=0;right=0;align=left;spacingLeft=6;overflow=hidden;rounded=1;strokeColor=light-dark(#D0CEE2,#E6E6E6);shadow=1;textShadow=0;html=1;" parent="NSskydTmlTYRemo2YeHl-73" vertex="1">
          <mxGeometry x="310" width="60" height="30" as="geometry">
            <mxRectangle width="60" height="30" as="alternateBounds" />
          </mxGeometry>
        </mxCell>
        <mxCell id="NSskydTmlTYRemo2YeHl-60" value="" style="shape=tableRow;horizontal=0;startSize=0;swimlaneHead=0;swimlaneBody=0;fillColor=none;collapsible=0;dropTarget=0;points=[[0,0.5],[1,0.5]];portConstraint=eastwest;top=0;left=0;right=0;bottom=0;rounded=1;strokeColor=light-dark(#D0CEE2,#E6E6E6);shadow=1;textShadow=0;html=1;" parent="NSskydTmlTYRemo2YeHl-41" vertex="1">
          <mxGeometry y="180" width="370" height="30" as="geometry" />
        </mxCell>
        <mxCell id="NSskydTmlTYRemo2YeHl-61" value="" style="shape=partialRectangle;connectable=0;fillColor=none;top=0;left=0;bottom=0;right=0;editable=1;overflow=hidden;rounded=1;strokeColor=light-dark(#D0CEE2,#E6E6E6);shadow=1;textShadow=0;html=1;" parent="NSskydTmlTYRemo2YeHl-60" vertex="1">
          <mxGeometry width="30" height="30" as="geometry">
            <mxRectangle width="30" height="30" as="alternateBounds" />
          </mxGeometry>
        </mxCell>
        <mxCell id="NSskydTmlTYRemo2YeHl-62" value="created_at" style="shape=partialRectangle;connectable=0;fillColor=none;top=0;left=0;bottom=0;right=0;align=left;spacingLeft=6;overflow=hidden;rounded=1;strokeColor=light-dark(#D0CEE2,#E6E6E6);shadow=1;textShadow=0;html=1;" parent="NSskydTmlTYRemo2YeHl-60" vertex="1">
          <mxGeometry x="30" width="185" height="30" as="geometry">
            <mxRectangle width="185" height="30" as="alternateBounds" />
          </mxGeometry>
        </mxCell>
        <mxCell id="NSskydTmlTYRemo2YeHl-97" value="timestamptz" style="shape=partialRectangle;connectable=0;fillColor=none;top=0;left=0;bottom=0;right=0;align=left;spacingLeft=6;overflow=hidden;rounded=1;strokeColor=light-dark(#D0CEE2,#E6E6E6);shadow=1;textShadow=0;html=1;" parent="NSskydTmlTYRemo2YeHl-60" vertex="1">
          <mxGeometry x="215" width="95" height="30" as="geometry">
            <mxRectangle width="95" height="30" as="alternateBounds" />
          </mxGeometry>
        </mxCell>
        <mxCell id="NSskydTmlTYRemo2YeHl-104" value="not null" style="shape=partialRectangle;connectable=0;fillColor=none;top=0;left=0;bottom=0;right=0;align=left;spacingLeft=6;overflow=hidden;rounded=1;strokeColor=light-dark(#D0CEE2,#E6E6E6);shadow=1;textShadow=0;html=1;" parent="NSskydTmlTYRemo2YeHl-60" vertex="1">
          <mxGeometry x="310" width="60" height="30" as="geometry">
            <mxRectangle width="60" height="30" as="alternateBounds" />
          </mxGeometry>
        </mxCell>
        <mxCell id="NSskydTmlTYRemo2YeHl-63" value="" style="shape=tableRow;horizontal=0;startSize=0;swimlaneHead=0;swimlaneBody=0;fillColor=none;collapsible=0;dropTarget=0;points=[[0,0.5],[1,0.5]];portConstraint=eastwest;top=0;left=0;right=0;bottom=0;rounded=1;strokeColor=light-dark(#D0CEE2,#E6E6E6);shadow=1;textShadow=0;html=1;" parent="NSskydTmlTYRemo2YeHl-41" vertex="1">
          <mxGeometry y="210" width="370" height="30" as="geometry" />
        </mxCell>
        <mxCell id="NSskydTmlTYRemo2YeHl-64" value="" style="shape=partialRectangle;connectable=0;fillColor=none;top=0;left=0;bottom=0;right=0;editable=1;overflow=hidden;rounded=1;strokeColor=light-dark(#D0CEE2,#E6E6E6);shadow=1;textShadow=0;html=1;" parent="NSskydTmlTYRemo2YeHl-63" vertex="1">
          <mxGeometry width="30" height="30" as="geometry">
            <mxRectangle width="30" height="30" as="alternateBounds" />
          </mxGeometry>
        </mxCell>
        <mxCell id="NSskydTmlTYRemo2YeHl-65" value="updated_at" style="shape=partialRectangle;connectable=0;fillColor=none;top=0;left=0;bottom=0;right=0;align=left;spacingLeft=6;overflow=hidden;rounded=1;strokeColor=light-dark(#D0CEE2,#E6E6E6);shadow=1;textShadow=0;html=1;" parent="NSskydTmlTYRemo2YeHl-63" vertex="1">
          <mxGeometry x="30" width="185" height="30" as="geometry">
            <mxRectangle width="185" height="30" as="alternateBounds" />
          </mxGeometry>
        </mxCell>
        <mxCell id="NSskydTmlTYRemo2YeHl-98" value="timestamptz" style="shape=partialRectangle;connectable=0;fillColor=none;top=0;left=0;bottom=0;right=0;align=left;spacingLeft=6;overflow=hidden;rounded=1;strokeColor=light-dark(#D0CEE2,#E6E6E6);shadow=1;textShadow=0;html=1;" parent="NSskydTmlTYRemo2YeHl-63" vertex="1">
          <mxGeometry x="215" width="95" height="30" as="geometry">
            <mxRectangle width="95" height="30" as="alternateBounds" />
          </mxGeometry>
        </mxCell>
        <mxCell id="NSskydTmlTYRemo2YeHl-105" value="not null" style="shape=partialRectangle;connectable=0;fillColor=none;top=0;left=0;bottom=0;right=0;align=left;spacingLeft=6;overflow=hidden;rounded=1;strokeColor=light-dark(#D0CEE2,#E6E6E6);shadow=1;textShadow=0;html=1;" parent="NSskydTmlTYRemo2YeHl-63" vertex="1">
          <mxGeometry x="310" width="60" height="30" as="geometry">
            <mxRectangle width="60" height="30" as="alternateBounds" />
          </mxGeometry>
        </mxCell>
        <mxCell id="NSskydTmlTYRemo2YeHl-66" value="" style="edgeStyle=entityRelationEdgeStyle;endArrow=ERmandOne;rounded=0;strokeColor=light-dark(#D0CEE2,#E6E6E6);entryX=0;entryY=0.333;entryDx=0;entryDy=0;entryPerimeter=0;exitX=1;exitY=0.5;exitDx=0;exitDy=0;shadow=1;textShadow=0;html=1;" parent="1" source="NSskydTmlTYRemo2YeHl-2" target="NSskydTmlTYRemo2YeHl-45" edge="1">
          <mxGeometry width="100" height="100" relative="1" as="geometry">
            <mxPoint x="395" y="320" as="sourcePoint" />
            <mxPoint x="495" y="220" as="targetPoint" />
          </mxGeometry>
        </mxCell>
        <mxCell id="NSskydTmlTYRemo2YeHl-109" value="" style="image;aspect=fixed;html=1;points=[];align=center;fontSize=12;image=img/lib/azure2/databases/Azure_Database_PostgreSQL_Server.svg;strokeColor=#D0CEE2;fontColor=#1A1A1A;fillColor=#5D7F99;" parent="1" vertex="1">
          <mxGeometry x="850" y="480" width="18" height="24" as="geometry" />
        </mxCell>
        <mxCell id="NSskydTmlTYRemo2YeHl-143" value="droplet.directories" style="swimlane;fontStyle=0;childLayout=stackLayout;horizontal=1;startSize=26;horizontalStack=0;resizeParent=1;resizeParentMax=0;resizeLast=0;collapsible=1;marginBottom=0;align=center;fontSize=14;strokeColor=#3A5431;fontColor=#ffffff;fillColor=light-dark(#6D8764,#006600);" parent="1" vertex="1">
          <mxGeometry x="160" y="640" width="160" height="206" as="geometry" />
        </mxCell>
        <mxCell id="NSskydTmlTYRemo2YeHl-144" value="_id&lt;span style=&quot;white-space: pre;&quot;&gt;&#x9;&lt;/span&gt;&lt;span style=&quot;white-space: pre;&quot;&gt;&#x9;&lt;/span&gt;&lt;span style=&quot;white-space: pre;&quot;&gt;&#x9;&lt;/span&gt;&lt;i&gt;ObjectId&lt;/i&gt;" style="text;strokeColor=none;fillColor=none;spacingLeft=4;spacingRight=4;overflow=hidden;rotatable=0;points=[[0,0.5],[1,0.5]];portConstraint=eastwest;fontSize=12;whiteSpace=wrap;html=1;fontColor=#1A1A1A;" parent="NSskydTmlTYRemo2YeHl-143" vertex="1">
          <mxGeometry y="26" width="160" height="30" as="geometry" />
        </mxCell>
        <mxCell id="NSskydTmlTYRemo2YeHl-145" value="name&lt;span style=&quot;white-space: pre;&quot;&gt;&#x9;&lt;/span&gt;&lt;span style=&quot;white-space: pre;&quot;&gt;&#x9;&lt;/span&gt;&lt;i&gt;string&lt;/i&gt;" style="text;strokeColor=none;fillColor=none;spacingLeft=4;spacingRight=4;overflow=hidden;rotatable=0;points=[[0,0.5],[1,0.5]];portConstraint=eastwest;fontSize=12;whiteSpace=wrap;html=1;fontColor=#1A1A1A;" parent="NSskydTmlTYRemo2YeHl-143" vertex="1">
          <mxGeometry y="56" width="160" height="30" as="geometry" />
        </mxCell>
        <mxCell id="NSskydTmlTYRemo2YeHl-146" value="ownerId&lt;span style=&quot;white-space: pre;&quot;&gt;&#x9;&lt;/span&gt;&lt;span style=&quot;white-space: pre;&quot;&gt;&#x9;&lt;/span&gt;&lt;i&gt;int&lt;/i&gt;" style="text;strokeColor=none;fillColor=none;spacingLeft=4;spacingRight=4;overflow=hidden;rotatable=0;points=[[0,0.5],[1,0.5]];portConstraint=eastwest;fontSize=12;whiteSpace=wrap;html=1;fontColor=#1A1A1A;" parent="NSskydTmlTYRemo2YeHl-143" vertex="1">
          <mxGeometry y="86" width="160" height="30" as="geometry" />
        </mxCell>
        <mxCell id="NSskydTmlTYRemo2YeHl-149" value="parentId&lt;span style=&quot;white-space: pre;&quot;&gt;&#x9;&lt;/span&gt;&lt;span style=&quot;white-space: pre;&quot;&gt;&#x9;&lt;/span&gt;&lt;i&gt;ObjectId&lt;/i&gt;" style="text;strokeColor=none;fillColor=none;spacingLeft=4;spacingRight=4;overflow=hidden;rotatable=0;points=[[0,0.5],[1,0.5]];portConstraint=eastwest;fontSize=12;whiteSpace=wrap;html=1;fontColor=#1A1A1A;" parent="NSskydTmlTYRemo2YeHl-143" vertex="1">
          <mxGeometry y="116" width="160" height="30" as="geometry" />
        </mxCell>
        <mxCell id="NSskydTmlTYRemo2YeHl-148" value="createdAt&lt;span style=&quot;white-space: pre;&quot;&gt;&#x9;&lt;/span&gt;&lt;span style=&quot;white-space: pre;&quot;&gt;&#x9;&lt;/span&gt;&lt;i&gt;timestamptz&lt;/i&gt;" style="text;strokeColor=none;fillColor=none;spacingLeft=4;spacingRight=4;overflow=hidden;rotatable=0;points=[[0,0.5],[1,0.5]];portConstraint=eastwest;fontSize=12;whiteSpace=wrap;html=1;fontColor=#1A1A1A;" parent="NSskydTmlTYRemo2YeHl-143" vertex="1">
          <mxGeometry y="146" width="160" height="30" as="geometry" />
        </mxCell>
        <mxCell id="NSskydTmlTYRemo2YeHl-147" value="updatedAt&lt;span style=&quot;white-space: pre;&quot;&gt;&#x9;&lt;/span&gt;&lt;i&gt;timestamptz&lt;/i&gt;" style="text;strokeColor=none;fillColor=none;spacingLeft=4;spacingRight=4;overflow=hidden;rotatable=0;points=[[0,0.5],[1,0.5]];portConstraint=eastwest;fontSize=12;whiteSpace=wrap;html=1;fontColor=#1A1A1A;" parent="NSskydTmlTYRemo2YeHl-143" vertex="1">
          <mxGeometry y="176" width="160" height="30" as="geometry" />
        </mxCell>
        <mxCell id="NSskydTmlTYRemo2YeHl-150" value="" style="edgeStyle=orthogonalEdgeStyle;fontSize=12;html=1;endArrow=ERzeroToMany;startArrow=ERmandOne;rounded=0;strokeColor=#736CA8;fontColor=#1A1A1A;entryX=0;entryY=0.5;entryDx=0;entryDy=0;exitX=0;exitY=0.5;exitDx=0;exitDy=0;" parent="NSskydTmlTYRemo2YeHl-143" source="NSskydTmlTYRemo2YeHl-144" target="NSskydTmlTYRemo2YeHl-149" edge="1">
          <mxGeometry width="100" height="100" relative="1" as="geometry">
            <mxPoint x="-109" y="-60" as="sourcePoint" />
            <mxPoint x="-210" y="120" as="targetPoint" />
            <Array as="points">
              <mxPoint x="-40" y="41" />
              <mxPoint x="-40" y="131" />
            </Array>
          </mxGeometry>
        </mxCell>
        <mxCell id="NSskydTmlTYRemo2YeHl-152" value="droplet.files" style="swimlane;fontStyle=0;childLayout=stackLayout;horizontal=1;startSize=26;horizontalStack=0;resizeParent=1;resizeParentMax=0;resizeLast=0;collapsible=1;marginBottom=0;align=center;fontSize=14;strokeColor=#3A5431;fontColor=#ffffff;fillColor=light-dark(#6D8764,#006600);" parent="1" vertex="1">
          <mxGeometry x="520" y="640" width="160" height="296" as="geometry" />
        </mxCell>
        <mxCell id="NSskydTmlTYRemo2YeHl-153" value="_id&lt;span style=&quot;white-space: pre;&quot;&gt;&#x9;&lt;/span&gt;&lt;span style=&quot;white-space: pre;&quot;&gt;&#x9;&lt;/span&gt;&lt;span style=&quot;white-space: pre;&quot;&gt;&#x9;&lt;/span&gt;&lt;i&gt;ObjectId&lt;/i&gt;" style="text;strokeColor=none;fillColor=none;spacingLeft=4;spacingRight=4;overflow=hidden;rotatable=0;points=[[0,0.5],[1,0.5]];portConstraint=eastwest;fontSize=12;whiteSpace=wrap;html=1;fontColor=#1A1A1A;" parent="NSskydTmlTYRemo2YeHl-152" vertex="1">
          <mxGeometry y="26" width="160" height="30" as="geometry" />
        </mxCell>
        <mxCell id="NSskydTmlTYRemo2YeHl-154" value="name&lt;span style=&quot;white-space: pre;&quot;&gt;&#x9;&lt;/span&gt;&lt;span style=&quot;white-space: pre;&quot;&gt;&#x9;&lt;/span&gt;&lt;i&gt;string&lt;/i&gt;" style="text;strokeColor=none;fillColor=none;spacingLeft=4;spacingRight=4;overflow=hidden;rotatable=0;points=[[0,0.5],[1,0.5]];portConstraint=eastwest;fontSize=12;whiteSpace=wrap;html=1;fontColor=#1A1A1A;" parent="NSskydTmlTYRemo2YeHl-152" vertex="1">
          <mxGeometry y="56" width="160" height="30" as="geometry" />
        </mxCell>
        <mxCell id="NSskydTmlTYRemo2YeHl-155" value="ownerId&lt;span style=&quot;white-space: pre;&quot;&gt;&#x9;&lt;/span&gt;&lt;span style=&quot;white-space: pre;&quot;&gt;&#x9;&lt;/span&gt;&lt;i&gt;int&lt;/i&gt;" style="text;strokeColor=none;fillColor=none;spacingLeft=4;spacingRight=4;overflow=hidden;rotatable=0;points=[[0,0.5],[1,0.5]];portConstraint=eastwest;fontSize=12;whiteSpace=wrap;html=1;fontColor=#1A1A1A;" parent="NSskydTmlTYRemo2YeHl-152" vertex="1">
          <mxGeometry y="86" width="160" height="30" as="geometry" />
        </mxCell>
        <mxCell id="NSskydTmlTYRemo2YeHl-156" value="parentId&lt;span style=&quot;white-space: pre;&quot;&gt;&#x9;&lt;/span&gt;&lt;span style=&quot;white-space: pre;&quot;&gt;&#x9;&lt;/span&gt;&lt;i&gt;ObjectId&lt;/i&gt;" style="text;strokeColor=none;fillColor=none;spacingLeft=4;spacingRight=4;overflow=hidden;rotatable=0;points=[[0,0.5],[1,0.5]];portConstraint=eastwest;fontSize=12;whiteSpace=wrap;html=1;fontColor=#1A1A1A;" parent="NSskydTmlTYRemo2YeHl-152" vertex="1">
          <mxGeometry y="116" width="160" height="30" as="geometry" />
        </mxCell>
        <mxCell id="NSskydTmlTYRemo2YeHl-162" value="blobUrl&lt;span style=&quot;white-space: pre;&quot;&gt;&#x9;&lt;span style=&quot;white-space: pre;&quot;&gt;&#x9;&lt;/span&gt;&lt;/span&gt;&lt;i&gt;string&lt;/i&gt;" style="text;strokeColor=none;fillColor=none;spacingLeft=4;spacingRight=4;overflow=hidden;rotatable=0;points=[[0,0.5],[1,0.5]];portConstraint=eastwest;fontSize=12;whiteSpace=wrap;html=1;fontColor=#1A1A1A;" parent="NSskydTmlTYRemo2YeHl-152" vertex="1">
          <mxGeometry y="146" width="160" height="30" as="geometry" />
        </mxCell>
        <mxCell id="NSskydTmlTYRemo2YeHl-161" value="mimeType&lt;span style=&quot;white-space: pre;&quot;&gt;&#x9;&lt;/span&gt;&lt;i&gt;string&lt;/i&gt;" style="text;strokeColor=none;fillColor=none;spacingLeft=4;spacingRight=4;overflow=hidden;rotatable=0;points=[[0,0.5],[1,0.5]];portConstraint=eastwest;fontSize=12;whiteSpace=wrap;html=1;fontColor=#1A1A1A;" parent="NSskydTmlTYRemo2YeHl-152" vertex="1">
          <mxGeometry y="176" width="160" height="30" as="geometry" />
        </mxCell>
        <mxCell id="NSskydTmlTYRemo2YeHl-160" value="size&lt;span style=&quot;white-space: pre;&quot;&gt;&#x9;&lt;/span&gt;&lt;span style=&quot;white-space: pre;&quot;&gt;&#x9;&lt;span style=&quot;white-space: pre;&quot;&gt;&#x9;&lt;/span&gt;&lt;/span&gt;&lt;i&gt;int&lt;/i&gt;" style="text;strokeColor=none;fillColor=none;spacingLeft=4;spacingRight=4;overflow=hidden;rotatable=0;points=[[0,0.5],[1,0.5]];portConstraint=eastwest;fontSize=12;whiteSpace=wrap;html=1;fontColor=#1A1A1A;" parent="NSskydTmlTYRemo2YeHl-152" vertex="1">
          <mxGeometry y="206" width="160" height="30" as="geometry" />
        </mxCell>
        <mxCell id="NSskydTmlTYRemo2YeHl-157" value="createdAt&lt;span style=&quot;white-space: pre;&quot;&gt;&#x9;&lt;/span&gt;&lt;span style=&quot;white-space: pre;&quot;&gt;&#x9;&lt;/span&gt;&lt;i&gt;timestamptz&lt;/i&gt;" style="text;strokeColor=none;fillColor=none;spacingLeft=4;spacingRight=4;overflow=hidden;rotatable=0;points=[[0,0.5],[1,0.5]];portConstraint=eastwest;fontSize=12;whiteSpace=wrap;html=1;fontColor=#1A1A1A;" parent="NSskydTmlTYRemo2YeHl-152" vertex="1">
          <mxGeometry y="236" width="160" height="30" as="geometry" />
        </mxCell>
        <mxCell id="NSskydTmlTYRemo2YeHl-158" value="updatedAt&lt;span style=&quot;white-space: pre;&quot;&gt;&#x9;&lt;/span&gt;&lt;i&gt;timestamptz&lt;/i&gt;" style="text;strokeColor=none;fillColor=none;spacingLeft=4;spacingRight=4;overflow=hidden;rotatable=0;points=[[0,0.5],[1,0.5]];portConstraint=eastwest;fontSize=12;whiteSpace=wrap;html=1;fontColor=#1A1A1A;" parent="NSskydTmlTYRemo2YeHl-152" vertex="1">
          <mxGeometry y="266" width="160" height="30" as="geometry" />
        </mxCell>
        <mxCell id="NSskydTmlTYRemo2YeHl-165" value="" style="edgeStyle=orthogonalEdgeStyle;fontSize=12;html=1;endArrow=ERzeroToMany;startArrow=ERmandOne;rounded=0;strokeColor=#736CA8;fontColor=#1A1A1A;exitX=1.006;exitY=0.353;exitDx=0;exitDy=0;exitPerimeter=0;entryX=0;entryY=0.5;entryDx=0;entryDy=0;" parent="1" source="NSskydTmlTYRemo2YeHl-144" target="NSskydTmlTYRemo2YeHl-156" edge="1">
          <mxGeometry width="100" height="100" relative="1" as="geometry">
            <mxPoint x="280" y="860" as="sourcePoint" />
            <mxPoint x="380" y="760" as="targetPoint" />
            <Array as="points">
              <mxPoint x="390" y="677" />
              <mxPoint x="390" y="771" />
            </Array>
          </mxGeometry>
        </mxCell>
        <mxCell id="NSskydTmlTYRemo2YeHl-167" value="" style="dashed=0;outlineConnect=0;html=1;align=center;labelPosition=center;verticalLabelPosition=bottom;verticalAlign=top;shape=mxgraph.weblogos.mongodb;strokeColor=#D0CEE2;fontColor=#1A1A1A;fillColor=#5D7F99;" parent="1" vertex="1">
          <mxGeometry x="850" y="920" width="20" height="30" as="geometry" />
        </mxCell>
        <mxCell id="NSskydTmlTYRemo2YeHl-168" value="" style="edgeStyle=orthogonalEdgeStyle;fontSize=12;html=1;endArrow=ERoneToMany;rounded=0;strokeColor=#736CA8;fontColor=#1A1A1A;" parent="1" edge="1">
          <mxGeometry width="100" height="100" relative="1" as="geometry">
            <mxPoint x="-60" y="240" as="sourcePoint" />
            <mxPoint x="160" y="780" as="targetPoint" />
            <Array as="points">
              <mxPoint x="-60" y="240" />
              <mxPoint x="-160" y="240" />
              <mxPoint x="-160" y="780" />
            </Array>
          </mxGeometry>
        </mxCell>
        <mxCell id="NSskydTmlTYRemo2YeHl-169" value="" style="edgeStyle=orthogonalEdgeStyle;fontSize=12;html=1;endArrow=ERoneToMany;rounded=0;strokeColor=#736CA8;fontColor=#1A1A1A;entryX=-0.001;entryY=0.085;entryDx=0;entryDy=0;entryPerimeter=0;exitX=-0.001;exitY=0.756;exitDx=0;exitDy=0;exitPerimeter=0;" parent="1" source="NSskydTmlTYRemo2YeHl-2" target="NSskydTmlTYRemo2YeHl-156" edge="1">
          <mxGeometry width="100" height="100" relative="1" as="geometry">
            <mxPoint x="-120" y="400" as="sourcePoint" />
            <mxPoint x="920" y="810" as="targetPoint" />
            <Array as="points">
              <mxPoint x="-120" y="253" />
              <mxPoint x="-120" y="560" />
              <mxPoint x="420" y="560" />
              <mxPoint x="420" y="759" />
            </Array>
          </mxGeometry>
        </mxCell>
        <mxCell id="NSskydTmlTYRemo2YeHl-171" value="" style="rounded=0;whiteSpace=wrap;html=1;strokeColor=#D0CEE2;fontColor=#1A1A1A;fillColor=default;" parent="1" vertex="1">
          <mxGeometry x="-80" y="1030" width="960" height="360" as="geometry" />
        </mxCell>
        <mxCell id="NSskydTmlTYRemo2YeHl-177" value="" style="sketch=0;pointerEvents=1;shadow=0;dashed=0;html=1;strokeColor=none;fillColor=#DF8C42;labelPosition=center;verticalLabelPosition=bottom;verticalAlign=top;align=center;outlineConnect=0;shape=mxgraph.veeam2.azure_blob;fontColor=#1A1A1A;" parent="1" vertex="1">
          <mxGeometry x="841.25" y="1350" width="24.25" height="24" as="geometry" />
        </mxCell>
        <mxCell id="NSskydTmlTYRemo2YeHl-178" value="" style="group" parent="1" vertex="1" connectable="0">
          <mxGeometry x="280" y="1080" width="200" height="200" as="geometry" />
        </mxCell>
        <mxCell id="NSskydTmlTYRemo2YeHl-173" value="" style="verticalLabelPosition=bottom;html=1;verticalAlign=top;align=center;strokeColor=none;fillColor=#00BEF2;shape=mxgraph.azure.storage_blob;fontColor=#1A1A1A;" parent="NSskydTmlTYRemo2YeHl-178" vertex="1">
          <mxGeometry x="30" y="60" width="50" height="45" as="geometry" />
        </mxCell>
        <mxCell id="NSskydTmlTYRemo2YeHl-174" value="home_accountId (blob container)" style="swimlane;strokeColor=#D0CEE2;fontColor=#1A1A1A;fillColor=#5D7F99;" parent="NSskydTmlTYRemo2YeHl-178" vertex="1">
          <mxGeometry width="200" height="200" as="geometry" />
        </mxCell>
        <mxCell id="NSskydTmlTYRemo2YeHl-175" value="" style="verticalLabelPosition=bottom;html=1;verticalAlign=top;align=center;strokeColor=none;fillColor=#00BEF2;shape=mxgraph.azure.storage_blob;fontColor=#1A1A1A;" parent="NSskydTmlTYRemo2YeHl-174" vertex="1">
          <mxGeometry x="125" y="60" width="50" height="45" as="geometry" />
        </mxCell>
        <mxCell id="NSskydTmlTYRemo2YeHl-176" value="" style="verticalLabelPosition=bottom;html=1;verticalAlign=top;align=center;strokeColor=none;fillColor=#00BEF2;shape=mxgraph.azure.storage_blob;fontColor=#1A1A1A;" parent="NSskydTmlTYRemo2YeHl-174" vertex="1">
          <mxGeometry x="75" y="130" width="50" height="45" as="geometry" />
        </mxCell>
        <mxCell id="NSskydTmlTYRemo2YeHl-179" value="" style="edgeStyle=orthogonalEdgeStyle;fontSize=12;html=1;endArrow=ERmandOne;rounded=0;strokeColor=#736CA8;fontColor=#1A1A1A;entryX=0;entryY=0.5;entryDx=0;entryDy=0;" parent="1" target="NSskydTmlTYRemo2YeHl-162" edge="1">
          <mxGeometry width="100" height="100" relative="1" as="geometry">
            <mxPoint x="480" y="1120" as="sourcePoint" />
            <mxPoint x="580" y="1020" as="targetPoint" />
            <Array as="points">
              <mxPoint x="500" y="1120" />
              <mxPoint x="500" y="801" />
            </Array>
          </mxGeometry>
        </mxCell>
      </root>
    </mxGraphModel>
  </diagram>
</mxfile>
